<svg width="512" height="512" viewBox="0 0 512 512" fill="none" xmlns="http://www.w3.org/2000/svg">
<path d="M477.867 102.4C459.042 102.4 443.734 117.709 443.734 136.533C443.734 155.357 459.043 170.666 477.867 170.666C496.691 170.666 512 155.358 512 136.533C512 117.709 496.691 102.4 477.867 102.4ZM477.867 153.6C468.455 153.6 460.8 145.946 460.8 136.533C460.8 127.121 468.454 119.466 477.867 119.466C487.28 119.466 494.934 127.12 494.934 136.533C494.933 145.946 487.279 153.6 477.867 153.6Z" fill="#007EE4"/>
<path d="M34.133 384C15.309 384 0 399.309 0 418.133C0 436.957 15.309 452.266 34.133 452.266C52.958 452.266 68.266 436.957 68.266 418.133C68.266 399.309 52.958 384 34.133 384ZM34.133 435.2C24.721 435.2 17.066 427.546 17.066 418.133C17.066 408.72 24.72 401.066 34.133 401.066C43.545 401.066 51.2 408.72 51.2 418.133C51.2 427.546 43.546 435.2 34.133 435.2Z" fill="#007EE4"/>
<path d="M461.321 113.186L387.704 77.6451C383.454 75.5881 378.36 77.3801 376.312 81.6221C374.264 85.8631 376.047 90.9661 380.289 93.0141L453.906 128.555C455.101 129.135 456.364 129.408 457.609 129.408C460.783 129.408 463.83 127.633 465.297 124.578C467.345 120.337 465.562 115.234 461.321 113.186Z" fill="#007EE4"/>
<path d="M384 443.733C365.175 443.733 349.867 459.042 349.867 477.866C349.867 496.69 365.175 512 384 512C402.825 512 418.133 496.691 418.133 477.867C418.133 459.043 402.825 443.733 384 443.733ZM384 494.933C374.588 494.933 366.933 487.279 366.933 477.866C366.933 468.453 374.588 460.8 384 460.8C393.412 460.8 401.067 468.454 401.067 477.867C401.067 487.28 393.412 494.933 384 494.933Z" fill="#007EE4"/>
<path d="M367.454 454.52L293.837 418.979C289.587 416.922 284.493 418.706 282.445 422.956C280.397 427.197 282.18 432.3 286.422 434.348L360.039 469.889C361.234 470.469 362.497 470.742 363.742 470.742C366.916 470.742 369.963 468.967 371.431 465.912C373.478 461.67 371.695 456.568 367.454 454.52Z" fill="#007EE4"/>
<path d="M256 230.4C237.175 230.4 221.867 245.709 221.867 264.533C221.867 283.358 237.176 298.666 256 298.666C274.825 298.666 290.133 283.357 290.133 264.533C290.133 245.709 274.825 230.4 256 230.4ZM256 281.6C246.588 281.6 238.933 273.946 238.933 264.533C238.933 255.121 246.587 247.466 256 247.466C265.412 247.466 273.067 255.12 273.067 264.533C273.067 273.946 265.412 281.6 256 281.6Z" fill="#007EE4"/>
<path d="M240.998 242.142L184.448 198.067C180.727 195.191 175.369 195.831 172.467 199.552C169.574 203.273 170.231 208.631 173.952 211.533L230.502 255.608C232.064 256.82 233.907 257.409 235.742 257.409C238.285 257.409 240.794 256.283 242.483 254.124C245.376 250.402 244.719 245.043 240.998 242.142Z" fill="#007EE4"/>
<path d="M409.6 221.867C357.845 221.867 315.733 263.979 315.733 315.734C315.733 367.489 357.845 409.601 409.6 409.601C461.355 409.601 503.467 367.489 503.467 315.734C503.467 263.979 461.355 221.867 409.6 221.867ZM409.6 392.533C367.249 392.533 332.8 358.084 332.8 315.733C332.8 273.382 367.249 238.933 409.6 238.933C451.951 238.933 486.4 273.382 486.4 315.733C486.4 358.084 451.951 392.533 409.6 392.533Z" fill="#007EE4"/>
<path d="M409.6 256C390.775 256 375.467 271.309 375.467 290.133C375.467 308.958 390.776 324.266 409.6 324.266C428.425 324.266 443.733 308.957 443.733 290.133C443.733 271.309 428.425 256 409.6 256ZM409.6 307.2C400.188 307.2 392.533 299.546 392.533 290.133C392.533 280.721 400.187 273.066 409.6 273.066C419.012 273.066 426.667 280.72 426.667 290.133C426.667 299.546 419.012 307.2 409.6 307.2Z" fill="#007EE4"/>
<path d="M434.355 341.333H384.845C370.262 341.333 358.4 352.879 358.4 367.061V389.555C358.4 392.601 360.021 395.417 362.658 396.945C376.96 405.222 393.19 409.6 409.6 409.6C426.01 409.6 442.24 405.222 456.542 396.945C459.179 395.426 460.8 392.601 460.8 389.564V367.07C460.8 352.879 448.939 341.333 434.355 341.333ZM443.733 384.469C422.494 395.05 396.706 395.05 375.466 384.469V367.07C375.466 362.291 379.673 358.4 384.844 358.4H434.354C439.525 358.4 443.732 362.291 443.732 367.07V384.469H443.733Z" fill="#007EE4"/>
<path d="M204.8 324.267C153.045 324.267 110.933 366.379 110.933 418.134C110.933 469.889 153.045 512 204.8 512C256.555 512 298.667 469.888 298.667 418.133C298.667 366.378 256.555 324.267 204.8 324.267ZM204.8 494.933C162.449 494.933 128 460.484 128 418.133C128 375.782 162.449 341.333 204.8 341.333C247.151 341.333 281.6 375.782 281.6 418.133C281.6 460.484 247.151 494.933 204.8 494.933Z" fill="#007EE4"/>
<path d="M204.8 358.4C185.975 358.4 170.667 373.709 170.667 392.533C170.667 411.358 185.976 426.666 204.8 426.666C223.624 426.666 238.933 411.357 238.933 392.533C238.933 373.709 223.625 358.4 204.8 358.4ZM204.8 409.6C195.388 409.6 187.733 401.946 187.733 392.533C187.733 383.121 195.387 375.466 204.8 375.466C214.212 375.466 221.867 383.12 221.867 392.533C221.867 401.946 214.212 409.6 204.8 409.6Z" fill="#007EE4"/>
<path d="M229.555 443.733H180.045C165.462 443.733 153.6 455.279 153.6 469.461V491.955C153.6 495.001 155.221 497.817 157.858 499.345C172.16 507.622 188.39 512 204.8 512C221.21 512 237.44 507.622 251.742 499.345C254.379 497.826 256 495.002 256 491.964V469.47C256 455.279 244.139 443.733 229.555 443.733ZM238.933 486.869C217.693 497.45 191.906 497.45 170.666 486.869V469.47C170.666 464.691 174.873 460.8 180.044 460.8H229.554C234.725 460.8 238.932 464.691 238.932 469.47V486.869H238.933Z" fill="#007EE4"/>
<path d="M93.867 110.933C42.112 110.933 0 153.045 0 204.8C0 256.555 42.112 298.667 93.867 298.667C145.622 298.667 187.734 256.555 187.734 204.8C187.733 153.045 145.621 110.933 93.867 110.933ZM93.867 281.6C51.516 281.6 17.067 247.151 17.067 204.8C17.067 162.449 51.516 128 93.867 128C136.218 128 170.667 162.449 170.667 204.8C170.667 247.151 136.218 281.6 93.867 281.6Z" fill="#007EE4"/>
<path d="M93.867 145.067C75.042 145.067 59.734 160.376 59.734 179.2C59.734 198.024 75.043 213.333 93.867 213.333C112.692 213.333 128 198.024 128 179.2C128 160.376 112.691 145.067 93.867 145.067ZM93.867 196.267C84.455 196.267 76.8 188.613 76.8 179.2C76.8 169.787 84.454 162.133 93.867 162.133C103.279 162.133 110.934 169.787 110.934 179.2C110.934 188.613 103.279 196.267 93.867 196.267Z" fill="#007EE4"/>
<path d="M118.622 230.4H69.112C54.529 230.4 42.667 241.946 42.667 256.128V278.622C42.667 281.668 44.288 284.484 46.925 286.012C61.227 294.289 77.457 298.667 93.867 298.667C110.277 298.667 126.507 294.289 140.809 286.012C143.446 284.493 145.067 281.668 145.067 278.631V256.137C145.067 241.946 133.205 230.4 118.622 230.4ZM128 273.536C106.761 284.117 80.973 284.117 59.733 273.536V256.137C59.733 251.358 63.94 247.467 69.111 247.467H118.621C123.792 247.467 127.999 251.358 127.999 256.137V273.536H128Z" fill="#007EE4"/>
<path d="M298.667 0C246.912 0 204.8 42.112 204.8 93.867C204.8 145.622 246.912 187.734 298.667 187.734C350.422 187.734 392.534 145.622 392.534 93.867C392.533 42.112 350.421 0 298.667 0ZM298.667 170.667C256.316 170.667 221.867 136.218 221.867 93.867C221.867 51.516 256.316 17.067 298.667 17.067C341.018 17.067 375.467 51.516 375.467 93.867C375.467 136.218 341.018 170.667 298.667 170.667Z" fill="#007EE4"/>
<path d="M298.667 34.1331C279.842 34.1331 264.534 49.4421 264.534 68.2661C264.534 87.0901 279.843 102.399 298.667 102.399C317.491 102.399 332.8 87.0911 332.8 68.2671C332.8 49.4431 317.491 34.1331 298.667 34.1331ZM298.667 85.3331C289.255 85.3331 281.6 77.6791 281.6 68.2661C281.6 58.8541 289.254 51.1991 298.667 51.1991C308.08 51.1991 315.734 58.8531 315.734 68.2661C315.733 77.6791 308.079 85.3331 298.667 85.3331Z" fill="#007EE4"/>
<path d="M323.422 119.467H273.912C259.329 119.467 247.467 131.013 247.467 145.195V167.689C247.467 170.735 249.088 173.551 251.725 175.079C266.027 183.356 282.257 187.734 298.667 187.734C315.077 187.734 331.307 183.356 345.609 175.079C348.246 173.56 349.867 170.735 349.867 167.698V145.204C349.867 131.012 338.005 119.467 323.422 119.467ZM332.8 162.603C311.561 173.184 285.773 173.184 264.533 162.603V145.204C264.533 140.425 268.74 136.534 273.911 136.534H323.421C328.592 136.534 332.799 140.425 332.799 145.204V162.603H332.8Z" fill="#007EE4"/>
<path d="M219.827 88.3111C216.764 84.7441 211.379 84.3171 207.795 87.3811L148.659 137.984C145.075 141.047 144.657 146.432 147.72 150.016C149.41 151.987 151.799 153.003 154.205 153.003C156.168 153.003 158.139 152.329 159.752 150.946L218.888 100.343C222.473 97.2801 222.891 91.8951 219.827 88.3111Z" fill="#007EE4"/>
<path d="M407.893 225.289L356.693 157.022C353.868 153.242 348.518 152.499 344.746 155.315C340.974 158.14 340.215 163.49 343.039 167.253L394.239 235.52C395.92 237.756 398.48 238.933 401.074 238.933C402.849 238.933 404.65 238.378 406.186 237.226C409.958 234.402 410.718 229.052 407.893 225.289Z" fill="#007EE4"/>
<path d="M337.86 343.953C335.035 340.181 329.685 339.422 325.913 342.246L278.246 377.992C274.474 380.817 273.715 386.167 276.539 389.93C278.22 392.166 280.78 393.343 283.374 393.343C285.157 393.343 286.949 392.78 288.486 391.636L336.153 355.89C339.925 353.067 340.685 347.716 337.86 343.953Z" fill="#007EE4"/>
<path d="M119.467 409.6H59.733C55.023 409.6 51.2 413.414 51.2 418.133C51.2 422.852 55.023 426.666 59.733 426.666H119.466C124.176 426.666 127.999 422.852 127.999 418.133C127.999 413.414 124.177 409.6 119.467 409.6Z" fill="#007EE4"/>
<path d="M93.867 0C75.042 0 59.733 15.309 59.733 34.133C59.733 52.958 75.042 68.266 93.866 68.266C112.691 68.266 127.999 52.957 127.999 34.133C128 15.309 112.691 0 93.867 0ZM93.867 51.2C84.455 51.2 76.8 43.546 76.8 34.133C76.8 24.721 84.454 17.066 93.867 17.066C103.279 17.066 110.934 24.72 110.934 34.133C110.933 43.546 103.279 51.2 93.867 51.2Z" fill="#007EE4"/>
<path d="M93.867 51.2C89.157 51.2 85.334 55.014 85.334 59.733V119.466C85.334 124.185 89.157 127.999 93.867 127.999C98.577 127.999 102.4 124.185 102.4 119.466V59.733C102.4 55.014 98.577 51.2 93.867 51.2Z" fill="#007EE4"/>
</svg>
