<svg width="32" height="32" viewBox="0 0 32 32" fill="none" xmlns="http://www.w3.org/2000/svg"><rect width="32" height="32" fill="#E8E8E8"></rect><g clip-path="url(#clip0)"><rect width="1440" height="304" transform="translate(-140 -36)" fill="#F4F4FB"></rect><g clip-path="url(#clip1)"><path fill-rule="evenodd" clip-rule="evenodd" d="M19.998 1.055C31.596 4.168 33.658 9.768 30.92 20.005 28.182 30.241 23.601 34.058 12.002 30.945 0.404 27.832 -1.658 22.232 1.08 11.995 3.818 1.759 8.4 -2.058 19.998 1.055Z" fill="#00AAFF"></path><path fill-rule="evenodd" clip-rule="evenodd" d="M12.846 19.994L23.167 9.673C23.704 9.136 24.574 9.136 25.111 9.673 25.648 10.21 25.648 11.081 25.111 11.618L13.818 22.911C13.281 23.448 12.41 23.448 11.874 22.911L7.328 18.365C6.791 17.828 6.791 16.958 7.328 16.421 7.865 15.884 8.735 15.884 9.272 16.421L12.846 19.994Z" fill="white"></path></g></g><defs><clipPath id="clip0"><rect width="1440" height="304" transform="translate(-140 -36)"></rect></clipPath><clipPath id="clip1"><rect width="32" height="32"></rect></clipPath></defs></svg>