<svg width="496" height="496" viewBox="0 0 496 496" fill="none" xmlns="http://www.w3.org/2000/svg">
<path d="M154.672 294.383C158.16 299.648 160 305.734 160 312C160 329.648 145.648 344 128 344C121.734 344 115.648 342.16 110.383 338.672L101.551 352.016C109.441 357.238 118.586 360 128 360C154.473 360 176 338.473 176 312C176 302.586 173.238 293.441 168.016 285.543L154.672 294.383Z" fill="#007EE4"/>
<path d="M128 280C134.266 280 140.359 281.84 145.609 285.32L154.449 271.984C146.566 266.762 137.426 264 128 264C101.527 264 80 285.527 80 312C80 321.414 82.7617 330.559 87.9844 338.457L101.328 329.625C97.8398 324.352 96 318.266 96 312C96 294.352 110.352 280 128 280Z" fill="#007EE4"/>
<path d="M288 336V384H320V368H304V336H288Z" fill="#007EE4"/>
<path d="M296 288C275.754 288 255.977 295.055 240.312 307.871L250.457 320.258C261.184 311.473 274.297 306.047 288 304.504V320H304V304.473C337.32 308.176 363.824 334.688 367.527 368H352V384H367.496C365.953 397.711 360.527 410.816 351.742 421.551L364.121 431.688C376.938 416.023 384 396.246 384 376C384 327.48 344.52 288 296 288V288Z" fill="#007EE4"/>
<path d="M304 447.496V432H288V447.527C254.68 443.824 228.176 417.312 224.473 384H240V368H224.504C226.047 354.289 231.473 341.184 240.258 330.449L227.879 320.312C215.062 335.977 208 355.754 208 376C208 424.52 247.48 464 296 464C316.246 464 336.023 456.945 351.688 444.129L341.543 431.742C330.816 440.527 317.711 445.953 304 447.496V447.496Z" fill="#007EE4"/>
<path d="M448 368H432V144H384V294.688C379.113 289.398 373.762 284.566 368 280.223V184H320V258.414C314.793 257.352 309.426 256.762 304 256.398V224H256V263C247.953 265.855 240.305 269.543 233.145 273.969C231.535 269.512 229.762 265.137 227.617 260.961L240.266 243.246L196.754 199.719L179.031 212.375C173.695 209.648 168.121 207.344 162.359 205.496L158.785 184H97.2227L93.6484 205.496C87.8867 207.344 82.3125 209.648 76.9766 212.375L59.2578 199.719L15.7422 243.246L28.3906 260.961C25.6562 266.289 23.3516 271.863 21.5039 277.633L0 281.223V342.777L21.4961 346.359C23.3437 352.129 25.6563 357.703 28.3828 363.031L15.7344 380.742L59.2461 424.273L76.9688 411.617C82.3047 414.344 87.8789 416.648 93.6406 418.496L97.2148 440H158.777L162.352 418.504C168.113 416.656 173.687 414.352 179.023 411.625L182.223 413.91C198.152 461.535 243.09 496 296 496C359.473 496 411.449 446.441 415.594 384H496V80H448V368ZM400 160H416V368H415.594C414.352 349.305 408.855 331.785 400 316.391V160ZM336 200H352V269.953C346.887 267.238 341.52 264.969 336 263.008V200ZM272 240H288V256.406C282.574 256.77 277.207 257.359 272 258.426V240ZM175.641 395.266C168.648 399.273 161.105 402.391 153.191 404.535L148.238 405.879L145.215 424H110.777L107.754 405.879L102.801 404.535C94.8945 402.391 87.3438 399.273 80.3516 395.266L75.8945 392.711L60.9766 403.375L36.6172 379.023L47.2812 364.09L44.7266 359.633C40.7266 352.656 37.6016 345.113 35.457 337.191L34.1211 332.238L16 329.223V294.777L34.1211 291.762L35.4648 286.809C37.625 278.879 40.7344 271.328 44.7344 264.367L47.2891 259.91L36.625 244.977L60.9844 220.625L75.9023 231.289L80.3594 228.734C87.3516 224.727 94.8945 221.609 102.809 219.465L107.762 218.121L110.785 200H145.223L148.246 218.121L153.199 219.465C161.105 221.609 168.656 224.727 175.648 228.734L180.105 231.289L195.023 220.625L219.383 244.977L208.719 259.91L211.273 264.367C214.727 270.383 217.383 276.902 219.473 283.656C214.793 287.543 210.496 291.855 206.457 296.391C199.168 259.727 166.77 232 128 232C83.8867 232 48 267.887 48 312C48 356.113 83.8867 392 128 392C145.473 392 162.281 386.09 176.008 375.785C176.008 375.855 176 375.93 176 376C176 382.199 176.617 388.238 177.527 394.184L175.641 395.266ZM191.801 316.711C185.777 327.266 181.266 338.77 178.656 351C166.574 366.656 147.785 376 128 376C92.7109 376 64 347.289 64 312C64 276.711 92.7109 248 128 248C163.289 248 192 276.711 192 312C192 313.594 191.91 315.152 191.801 316.711ZM296 480C238.656 480 192 433.344 192 376C192 318.656 238.656 272 296 272C353.344 272 400 318.656 400 376C400 433.344 353.344 480 296 480ZM464 96H480V368H464V96Z" fill="#007EE4"/>
<path d="M448 0V16H465.191L408.594 61.2812L384 36.6875L346.281 74.4062C343.152 72.9023 339.695 72 336 72C322.77 72 312 82.7695 312 96C312 100.137 313.152 103.977 315 107.375L273.184 153.84C270.352 152.664 267.258 152 264 152C263.848 152 263.711 152.039 263.559 152.047L231.391 66.2578C236.609 61.8555 240 55.3516 240 48C240 34.7695 229.23 24 216 24C202.77 24 192 34.7695 192 48C192 49.7266 192.199 51.4063 192.551 53.0391L126.969 93.3906C122.855 90.0703 117.688 88 112 88C101.586 88 92.7852 94.7109 89.4727 104H46.5273C43.2148 94.7109 34.4141 88 24 88C10.7695 88 0 98.7695 0 112C0 125.23 10.7695 136 24 136C34.4141 136 43.2148 129.289 46.5273 120H89.4805C92.793 129.289 101.594 136 112.008 136C125.238 136 136.008 125.23 136.008 112C136.008 110.273 135.809 108.594 135.457 106.961L201.039 66.6094C205.145 69.9297 210.312 72 216 72C216.152 72 216.289 71.9609 216.441 71.9531L248.609 157.734C243.391 162.145 240 168.648 240 176C240 189.23 250.77 200 264 200C277.23 200 288 189.23 288 176C288 171.863 286.855 168.023 285 164.625L326.816 118.16C329.648 119.336 332.742 120 336 120C349.23 120 360 109.23 360 96C360 92.3047 359.098 88.8477 357.594 85.7188L384 59.3125L407.406 82.7188L480 24.6484V48H496V0H448ZM24 120C19.5859 120 16 116.406 16 112C16 107.594 19.5859 104 24 104C28.4141 104 32 107.594 32 112C32 116.406 28.4141 120 24 120ZM112 120C107.586 120 104 116.406 104 112C104 107.594 107.586 104 112 104C116.414 104 120 107.594 120 112C120 116.406 116.414 120 112 120ZM208 48C208 43.5938 211.586 40 216 40C220.414 40 224 43.5938 224 48C224 52.4062 220.414 56 216 56C211.586 56 208 52.4062 208 48ZM264 184C259.586 184 256 180.406 256 176C256 171.594 259.586 168 264 168C268.414 168 272 171.594 272 176C272 180.406 268.414 184 264 184ZM336 104C331.586 104 328 100.406 328 96C328 91.5938 331.586 88 336 88C340.414 88 344 91.5938 344 96C344 100.406 340.414 104 336 104Z" fill="#007EE4"/>
</svg>
