<svg width="320" height="320" viewBox="0 0 320 320" fill="none" xmlns="http://www.w3.org/2000/svg">
<circle opacity="0.3" cx="160.319" cy="159.945" r="111.881" fill="white"/>
<path d="M232.015 34.2867L196.068 50.1075C192.356 51.7399 189.968 55.3811 189.968 59.4037V83.3053C189.968 123.124 223.034 141.717 236.185 144.331C249.336 141.717 282.402 123.124 282.402 83.3053V59.4037C282.402 55.3862 280.014 51.7399 276.302 50.1075L240.355 34.2867C237.7 33.117 234.67 33.117 232.015 34.2867Z" fill="url(#paint0_linear_7003_65900)"/>
<g style="mix-blend-mode:multiply" opacity="0.25">
<path d="M236.185 33.4097V144.331C249.336 141.717 282.402 123.125 282.402 83.3056V59.4039C282.402 55.3865 280.014 51.7402 276.301 50.1078L240.355 34.2869C239.027 33.7021 237.606 33.4097 236.185 33.4097Z" fill="#DDDDEE"/>
</g>
<path d="M207.326 97.3198V72.1214H213.122V97.3198H207.326Z" fill="#00BFBF"/>
<path d="M226.832 97.7518C225.608 97.7518 224.433 97.5958 223.305 97.2838C222.201 96.9478 221.193 96.5038 220.281 95.9519C219.393 95.3759 218.661 94.74 218.085 94.044C217.509 93.324 217.149 92.5561 217.005 91.7402L222.729 90.1203C222.993 90.8162 223.449 91.4282 224.097 91.9561C224.769 92.4601 225.608 92.7241 226.616 92.7481C227.6 92.7721 228.416 92.5441 229.064 92.0641C229.736 91.5842 230.072 90.9602 230.072 90.1922C230.072 89.5923 229.832 89.0643 229.352 88.6084C228.896 88.1524 228.236 87.8044 227.372 87.5644L223.809 86.6645C222.561 86.3525 221.469 85.8605 220.533 85.1886C219.621 84.5166 218.901 83.7007 218.373 82.7407C217.869 81.7568 217.617 80.6409 217.617 79.393C217.617 76.9691 218.421 75.0852 220.029 73.7413C221.637 72.3734 223.905 71.6895 226.832 71.6895C228.44 71.6895 229.844 71.9174 231.044 72.3734C232.244 72.8054 233.264 73.4533 234.104 74.3173C234.968 75.1812 235.652 76.2612 236.156 77.5571L230.468 79.249C230.276 78.601 229.856 78.013 229.208 77.4851C228.584 76.9571 227.768 76.6931 226.76 76.6931C225.752 76.6931 224.961 76.9211 224.385 77.3771C223.833 77.8331 223.557 78.493 223.557 79.357C223.557 79.9569 223.785 80.4609 224.241 80.8689C224.697 81.2528 225.321 81.5408 226.112 81.7328L229.676 82.6327C231.716 83.1367 233.3 84.0846 234.428 85.4766C235.58 86.8445 236.156 88.4044 236.156 90.1563C236.156 91.7401 235.784 93.0961 235.04 94.224C234.32 95.3519 233.264 96.2279 231.872 96.8518C230.48 97.4518 228.8 97.7518 226.832 97.7518Z" fill="#00BFBF"/>
<path d="M251.942 97.7518C249.35 97.7518 247.058 97.1998 245.067 96.0959C243.075 94.9679 241.515 93.432 240.387 91.4882C239.259 89.5203 238.695 87.2764 238.695 84.7566C238.695 82.2128 239.259 79.9689 240.387 78.025C241.515 76.0572 243.063 74.5213 245.031 73.4173C247.022 72.2894 249.302 71.7255 251.87 71.7255C254.438 71.7255 256.706 72.2894 258.674 73.4173C260.666 74.5213 262.226 76.0572 263.353 78.025C264.481 79.9689 265.045 82.2128 265.045 84.7566C265.045 87.2764 264.481 89.5203 263.353 91.4882C262.25 93.432 260.714 94.9679 258.746 96.0959C256.778 97.1998 254.51 97.7518 251.942 97.7518ZM251.942 92.4241C253.358 92.4241 254.606 92.1001 255.686 91.4522C256.766 90.8042 257.606 89.9043 258.206 88.7523C258.806 87.5764 259.106 86.2445 259.106 84.7566C259.106 83.2447 258.794 81.9128 258.17 80.7609C257.546 79.5849 256.694 78.673 255.614 78.025C254.534 77.3531 253.286 77.0171 251.87 77.0171C250.454 77.0171 249.206 77.3531 248.126 78.025C247.046 78.673 246.195 79.5849 245.571 80.7609C244.947 81.9128 244.635 83.2447 244.635 84.7566C244.635 86.2445 244.947 87.5764 245.571 88.7523C246.195 89.9043 247.058 90.8042 248.162 91.4522C249.266 92.1001 250.526 92.4241 251.942 92.4241Z" fill="#00BFBF"/>
<mask id="path-5-outside-1_7003_65900" maskUnits="userSpaceOnUse" x="208.959" y="53.472" width="53" height="62" fill="black">
<rect fill="white" x="208.959" y="53.472" width="53" height="62"/>
<path fill-rule="evenodd" clip-rule="evenodd" d="M236.867 54.5295C238.92 54.6023 241.367 55.0028 243.552 55.6291C250.266 57.5516 256.019 61.7243 260.155 67.652C260.381 67.9797 260.57 68.2856 260.57 68.3292C260.57 68.3875 260.242 68.4093 259.522 68.4093H258.473L258.138 67.936C257.213 66.6543 255.407 64.6445 254.22 63.5885L253.71 63.137L252.465 63.4502C250.237 63.9963 247.783 64.4406 245.336 64.7391C244.782 64.8119 244.331 64.8921 244.331 64.9139C244.331 64.943 244.433 65.2926 244.557 65.6858C244.841 66.6252 245.278 68.1982 245.278 68.3147C245.278 68.3875 245.052 68.4093 244.367 68.4093H243.464L243.341 67.987C243.311 67.8728 243.265 67.7084 243.217 67.5379C243.17 67.3714 243.122 67.1989 243.086 67.0621C242.853 66.2611 242.496 65.1761 242.438 65.1105C242.408 65.0741 241.928 65.0814 241.374 65.1251C240.828 65.1688 239.277 65.2416 237.937 65.2926C235.367 65.38 231.747 65.2999 229.33 65.096C228.711 65.045 228.179 65.0231 228.15 65.0523C228.092 65.1105 227.567 66.749 227.32 67.6738L227.123 68.4093H226.227C225.405 68.4093 225.324 68.3948 225.324 68.2783C225.324 68.1181 225.739 66.5742 226.053 65.5766C226.176 65.1979 226.249 64.8629 226.213 64.8338C226.184 64.8119 225.82 64.7464 225.397 64.7027C223.409 64.477 220.525 63.9454 218.319 63.4065L216.957 63.0715L216.571 63.3992C215.399 64.4041 213.513 66.4723 212.544 67.8049L212.107 68.4093H211.037C210.44 68.4093 209.959 68.3875 209.959 68.3657C209.959 68.271 211.124 66.6543 211.78 65.8242C214.576 62.3214 217.999 59.5688 222.047 57.5662C225.135 56.0369 228.15 55.1412 231.696 54.6824C232.592 54.5659 234.966 54.4421 235.519 54.4785C235.658 54.4858 236.27 54.5149 236.867 54.5295ZM229.519 61.7461C230.99 58.7386 232.592 56.918 234.274 56.3427C235.265 56.0078 236.291 56.1753 237.304 56.8307C238.265 57.4642 239.204 58.5274 240.151 60.0567C240.617 60.7994 241.709 62.9914 241.709 63.1734C241.709 63.3118 241.418 63.3336 238.323 63.4647C235.745 63.574 231.012 63.472 229.206 63.2754C228.893 63.239 228.834 63.2099 228.871 63.1079C228.893 63.0424 229.184 62.4234 229.519 61.7461ZM230.203 56.6268C226.3 57.4497 223.111 58.7677 219.775 60.9524C218.96 61.484 218.698 61.7097 218.901 61.7097C218.926 61.7097 219.274 61.785 219.713 61.88C219.785 61.8956 219.86 61.9118 219.936 61.9282C221.698 62.3287 225.375 62.9331 226.657 63.0351L226.934 63.0569L227.24 62.3287C228.128 60.2533 229.512 57.9885 230.633 56.8088C230.881 56.5467 230.881 56.5394 230.713 56.5467C230.611 56.554 230.385 56.5831 230.203 56.6268ZM241.753 59.2483C241.331 58.5711 240.5 57.4278 239.998 56.8452L239.991 56.837C239.871 56.7015 239.798 56.6179 239.817 56.5798C239.847 56.5184 240.117 56.5756 240.825 56.7249L240.843 56.7287C244.258 57.4496 247.695 58.9061 250.797 60.9524C251.365 61.3238 251.831 61.6588 251.831 61.6952C251.831 61.8772 246.406 62.8312 244.112 63.0569L243.639 63.1006L243.384 62.4671C243.049 61.6151 242.27 60.0858 241.753 59.2483Z"/>
<path fill-rule="evenodd" clip-rule="evenodd" d="M212.362 100.939C213.287 102.25 215.311 104.5 216.455 105.49L216.87 105.847L218.057 105.556C220.336 104.995 222.594 104.58 224.924 104.296C225.645 104.209 226.242 104.128 226.257 104.121C226.271 104.114 226.176 103.786 226.053 103.386C225.754 102.446 225.324 100.888 225.324 100.728C225.324 100.611 225.412 100.597 226.227 100.597H227.123L227.32 101.303C227.422 101.67 227.625 102.355 227.782 102.883L227.815 102.992L228.121 103.961L228.529 103.917C230.881 103.677 237.012 103.611 239.889 103.801C240.792 103.859 241.738 103.91 241.993 103.91H242.467L242.714 103.145C242.853 102.723 243.071 101.988 243.202 101.507L243.442 100.633L244.36 100.611C244.972 100.597 245.278 100.618 245.278 100.669C245.278 100.793 244.644 103.065 244.447 103.633L244.265 104.158L244.498 104.194C244.629 104.216 245.139 104.289 245.642 104.347C247.775 104.616 250.426 105.119 252.436 105.629C253.477 105.898 253.601 105.913 253.747 105.818C254.096 105.585 255.669 104.019 256.427 103.167C256.864 102.665 257.504 101.886 257.847 101.427L258.48 100.597H259.522C260.097 100.597 260.57 100.626 260.57 100.655C260.57 100.75 259.609 102.133 259.048 102.854C254.023 109.328 246.603 113.464 238.396 114.375C237.041 114.52 233.124 114.498 231.842 114.338C225.179 113.479 219.564 110.857 214.692 106.328C213.018 104.769 210.92 102.25 210.003 100.684C209.959 100.618 210.185 100.597 211.037 100.597H212.122L212.362 100.939ZM228.834 105.731C228.856 105.709 230.203 105.629 232.17 105.519C233.131 105.468 238.949 105.541 240.144 105.621C241.556 105.716 241.709 105.738 241.709 105.854C241.709 106.073 240.355 108.658 239.809 109.481C238.986 110.726 237.777 111.942 236.939 112.372C236.197 112.751 235.716 112.86 235.053 112.809C234.376 112.751 233.961 112.605 233.277 112.161C232.228 111.476 231.208 110.282 230.174 108.505C229.694 107.675 228.776 105.789 228.834 105.731ZM226.162 105.964C226.045 105.978 225.346 106.073 224.611 106.175C222.863 106.415 221.494 106.648 219.958 106.976C218.982 107.187 218.72 107.267 218.778 107.34C218.909 107.5 220.824 108.731 221.785 109.262C224.276 110.653 226.985 111.68 229.694 112.248C230.255 112.372 230.75 112.467 230.793 112.467C230.837 112.467 230.699 112.263 230.48 112.008C229.301 110.661 228.186 108.825 227.283 106.75L226.934 105.949L226.657 105.942C226.504 105.934 226.286 105.942 226.162 105.964ZM241.819 109.627C242.292 108.847 243.195 107.056 243.464 106.371C243.572 106.094 243.613 105.987 243.688 105.953C243.735 105.931 243.796 105.938 243.894 105.949C244.032 105.971 244.673 106.051 245.314 106.131C247.171 106.371 249.509 106.794 251.46 107.245L251.846 107.333L251.205 107.777C249.035 109.27 246.035 110.755 243.654 111.513C242.328 111.935 239.852 112.532 239.772 112.452C239.758 112.43 239.925 112.212 240.151 111.95C240.69 111.331 241.309 110.471 241.819 109.627Z"/>
</mask>
<path fill-rule="evenodd" clip-rule="evenodd" d="M236.867 54.5295C238.92 54.6023 241.367 55.0028 243.552 55.6291C250.266 57.5516 256.019 61.7243 260.155 67.652C260.381 67.9797 260.57 68.2856 260.57 68.3292C260.57 68.3875 260.242 68.4093 259.522 68.4093H258.473L258.138 67.936C257.213 66.6543 255.407 64.6445 254.22 63.5885L253.71 63.137L252.465 63.4502C250.237 63.9963 247.783 64.4406 245.336 64.7391C244.782 64.8119 244.331 64.8921 244.331 64.9139C244.331 64.943 244.433 65.2926 244.557 65.6858C244.841 66.6252 245.278 68.1982 245.278 68.3147C245.278 68.3875 245.052 68.4093 244.367 68.4093H243.464L243.341 67.987C243.311 67.8728 243.265 67.7084 243.217 67.5379C243.17 67.3714 243.122 67.1989 243.086 67.0621C242.853 66.2611 242.496 65.1761 242.438 65.1105C242.408 65.0741 241.928 65.0814 241.374 65.1251C240.828 65.1688 239.277 65.2416 237.937 65.2926C235.367 65.38 231.747 65.2999 229.33 65.096C228.711 65.045 228.179 65.0231 228.15 65.0523C228.092 65.1105 227.567 66.749 227.32 67.6738L227.123 68.4093H226.227C225.405 68.4093 225.324 68.3948 225.324 68.2783C225.324 68.1181 225.739 66.5742 226.053 65.5766C226.176 65.1979 226.249 64.8629 226.213 64.8338C226.184 64.8119 225.82 64.7464 225.397 64.7027C223.409 64.477 220.525 63.9454 218.319 63.4065L216.957 63.0715L216.571 63.3992C215.399 64.4041 213.513 66.4723 212.544 67.8049L212.107 68.4093H211.037C210.44 68.4093 209.959 68.3875 209.959 68.3657C209.959 68.271 211.124 66.6543 211.78 65.8242C214.576 62.3214 217.999 59.5688 222.047 57.5662C225.135 56.0369 228.15 55.1412 231.696 54.6824C232.592 54.5659 234.966 54.4421 235.519 54.4785C235.658 54.4858 236.27 54.5149 236.867 54.5295ZM229.519 61.7461C230.99 58.7386 232.592 56.918 234.274 56.3427C235.265 56.0078 236.291 56.1753 237.304 56.8307C238.265 57.4642 239.204 58.5274 240.151 60.0567C240.617 60.7994 241.709 62.9914 241.709 63.1734C241.709 63.3118 241.418 63.3336 238.323 63.4647C235.745 63.574 231.012 63.472 229.206 63.2754C228.893 63.239 228.834 63.2099 228.871 63.1079C228.893 63.0424 229.184 62.4234 229.519 61.7461ZM230.203 56.6268C226.3 57.4497 223.111 58.7677 219.775 60.9524C218.96 61.484 218.698 61.7097 218.901 61.7097C218.926 61.7097 219.274 61.785 219.713 61.88C219.785 61.8956 219.86 61.9118 219.936 61.9282C221.698 62.3287 225.375 62.9331 226.657 63.0351L226.934 63.0569L227.24 62.3287C228.128 60.2533 229.512 57.9885 230.633 56.8088C230.881 56.5467 230.881 56.5394 230.713 56.5467C230.611 56.554 230.385 56.5831 230.203 56.6268ZM241.753 59.2483C241.331 58.5711 240.5 57.4278 239.998 56.8452L239.991 56.837C239.871 56.7015 239.798 56.6179 239.817 56.5798C239.847 56.5184 240.117 56.5756 240.825 56.7249L240.843 56.7287C244.258 57.4496 247.695 58.9061 250.797 60.9524C251.365 61.3238 251.831 61.6588 251.831 61.6952C251.831 61.8772 246.406 62.8312 244.112 63.0569L243.639 63.1006L243.384 62.4671C243.049 61.6151 242.27 60.0858 241.753 59.2483Z" fill="#00BFBF"/>
<path fill-rule="evenodd" clip-rule="evenodd" d="M212.362 100.939C213.287 102.25 215.311 104.5 216.455 105.49L216.87 105.847L218.057 105.556C220.336 104.995 222.594 104.58 224.924 104.296C225.645 104.209 226.242 104.128 226.257 104.121C226.271 104.114 226.176 103.786 226.053 103.386C225.754 102.446 225.324 100.888 225.324 100.728C225.324 100.611 225.412 100.597 226.227 100.597H227.123L227.32 101.303C227.422 101.67 227.625 102.355 227.782 102.883L227.815 102.992L228.121 103.961L228.529 103.917C230.881 103.677 237.012 103.611 239.889 103.801C240.792 103.859 241.738 103.91 241.993 103.91H242.467L242.714 103.145C242.853 102.723 243.071 101.988 243.202 101.507L243.442 100.633L244.36 100.611C244.972 100.597 245.278 100.618 245.278 100.669C245.278 100.793 244.644 103.065 244.447 103.633L244.265 104.158L244.498 104.194C244.629 104.216 245.139 104.289 245.642 104.347C247.775 104.616 250.426 105.119 252.436 105.629C253.477 105.898 253.601 105.913 253.747 105.818C254.096 105.585 255.669 104.019 256.427 103.167C256.864 102.665 257.504 101.886 257.847 101.427L258.48 100.597H259.522C260.097 100.597 260.57 100.626 260.57 100.655C260.57 100.75 259.609 102.133 259.048 102.854C254.023 109.328 246.603 113.464 238.396 114.375C237.041 114.52 233.124 114.498 231.842 114.338C225.179 113.479 219.564 110.857 214.692 106.328C213.018 104.769 210.92 102.25 210.003 100.684C209.959 100.618 210.185 100.597 211.037 100.597H212.122L212.362 100.939ZM228.834 105.731C228.856 105.709 230.203 105.629 232.17 105.519C233.131 105.468 238.949 105.541 240.144 105.621C241.556 105.716 241.709 105.738 241.709 105.854C241.709 106.073 240.355 108.658 239.809 109.481C238.986 110.726 237.777 111.942 236.939 112.372C236.197 112.751 235.716 112.86 235.053 112.809C234.376 112.751 233.961 112.605 233.277 112.161C232.228 111.476 231.208 110.282 230.174 108.505C229.694 107.675 228.776 105.789 228.834 105.731ZM226.162 105.964C226.045 105.978 225.346 106.073 224.611 106.175C222.863 106.415 221.494 106.648 219.958 106.976C218.982 107.187 218.72 107.267 218.778 107.34C218.909 107.5 220.824 108.731 221.785 109.262C224.276 110.653 226.985 111.68 229.694 112.248C230.255 112.372 230.75 112.467 230.793 112.467C230.837 112.467 230.699 112.263 230.48 112.008C229.301 110.661 228.186 108.825 227.283 106.75L226.934 105.949L226.657 105.942C226.504 105.934 226.286 105.942 226.162 105.964ZM241.819 109.627C242.292 108.847 243.195 107.056 243.464 106.371C243.572 106.094 243.613 105.987 243.688 105.953C243.735 105.931 243.796 105.938 243.894 105.949C244.032 105.971 244.673 106.051 245.314 106.131C247.171 106.371 249.509 106.794 251.46 107.245L251.846 107.333L251.205 107.777C249.035 109.27 246.035 110.755 243.654 111.513C242.328 111.935 239.852 112.532 239.772 112.452C239.758 112.43 239.925 112.212 240.151 111.95C240.69 111.331 241.309 110.471 241.819 109.627Z" fill="#00BFBF"/>
<path fill-rule="evenodd" clip-rule="evenodd" d="M236.867 54.5295C238.92 54.6023 241.367 55.0028 243.552 55.6291C250.266 57.5516 256.019 61.7243 260.155 67.652C260.381 67.9797 260.57 68.2856 260.57 68.3292C260.57 68.3875 260.242 68.4093 259.522 68.4093H258.473L258.138 67.936C257.213 66.6543 255.407 64.6445 254.22 63.5885L253.71 63.137L252.465 63.4502C250.237 63.9963 247.783 64.4406 245.336 64.7391C244.782 64.8119 244.331 64.8921 244.331 64.9139C244.331 64.943 244.433 65.2926 244.557 65.6858C244.841 66.6252 245.278 68.1982 245.278 68.3147C245.278 68.3875 245.052 68.4093 244.367 68.4093H243.464L243.341 67.987C243.311 67.8728 243.265 67.7084 243.217 67.5379C243.17 67.3714 243.122 67.1989 243.086 67.0621C242.853 66.2611 242.496 65.1761 242.438 65.1105C242.408 65.0741 241.928 65.0814 241.374 65.1251C240.828 65.1688 239.277 65.2416 237.937 65.2926C235.367 65.38 231.747 65.2999 229.33 65.096C228.711 65.045 228.179 65.0231 228.15 65.0523C228.092 65.1105 227.567 66.749 227.32 67.6738L227.123 68.4093H226.227C225.405 68.4093 225.324 68.3948 225.324 68.2783C225.324 68.1181 225.739 66.5742 226.053 65.5766C226.176 65.1979 226.249 64.8629 226.213 64.8338C226.184 64.8119 225.82 64.7464 225.397 64.7027C223.409 64.477 220.525 63.9454 218.319 63.4065L216.957 63.0715L216.571 63.3992C215.399 64.4041 213.513 66.4723 212.544 67.8049L212.107 68.4093H211.037C210.44 68.4093 209.959 68.3875 209.959 68.3657C209.959 68.271 211.124 66.6543 211.78 65.8242C214.576 62.3214 217.999 59.5688 222.047 57.5662C225.135 56.0369 228.15 55.1412 231.696 54.6824C232.592 54.5659 234.966 54.4421 235.519 54.4785C235.658 54.4858 236.27 54.5149 236.867 54.5295ZM229.519 61.7461C230.99 58.7386 232.592 56.918 234.274 56.3427C235.265 56.0078 236.291 56.1753 237.304 56.8307C238.265 57.4642 239.204 58.5274 240.151 60.0567C240.617 60.7994 241.709 62.9914 241.709 63.1734C241.709 63.3118 241.418 63.3336 238.323 63.4647C235.745 63.574 231.012 63.472 229.206 63.2754C228.893 63.239 228.834 63.2099 228.871 63.1079C228.893 63.0424 229.184 62.4234 229.519 61.7461ZM230.203 56.6268C226.3 57.4497 223.111 58.7677 219.775 60.9524C218.96 61.484 218.698 61.7097 218.901 61.7097C218.926 61.7097 219.274 61.785 219.713 61.88C219.785 61.8956 219.86 61.9118 219.936 61.9282C221.698 62.3287 225.375 62.9331 226.657 63.0351L226.934 63.0569L227.24 62.3287C228.128 60.2533 229.512 57.9885 230.633 56.8088C230.881 56.5467 230.881 56.5394 230.713 56.5467C230.611 56.554 230.385 56.5831 230.203 56.6268ZM241.753 59.2483C241.331 58.5711 240.5 57.4278 239.998 56.8452L239.991 56.837C239.871 56.7015 239.798 56.6179 239.817 56.5798C239.847 56.5184 240.117 56.5756 240.825 56.7249L240.843 56.7287C244.258 57.4496 247.695 58.9061 250.797 60.9524C251.365 61.3238 251.831 61.6588 251.831 61.6952C251.831 61.8772 246.406 62.8312 244.112 63.0569L243.639 63.1006L243.384 62.4671C243.049 61.6151 242.27 60.0858 241.753 59.2483Z" stroke="#00BFBF" stroke-width="1.0566" mask="url(#path-5-outside-1_7003_65900)"/>
<path fill-rule="evenodd" clip-rule="evenodd" d="M212.362 100.939C213.287 102.25 215.311 104.5 216.455 105.49L216.87 105.847L218.057 105.556C220.336 104.995 222.594 104.58 224.924 104.296C225.645 104.209 226.242 104.128 226.257 104.121C226.271 104.114 226.176 103.786 226.053 103.386C225.754 102.446 225.324 100.888 225.324 100.728C225.324 100.611 225.412 100.597 226.227 100.597H227.123L227.32 101.303C227.422 101.67 227.625 102.355 227.782 102.883L227.815 102.992L228.121 103.961L228.529 103.917C230.881 103.677 237.012 103.611 239.889 103.801C240.792 103.859 241.738 103.91 241.993 103.91H242.467L242.714 103.145C242.853 102.723 243.071 101.988 243.202 101.507L243.442 100.633L244.36 100.611C244.972 100.597 245.278 100.618 245.278 100.669C245.278 100.793 244.644 103.065 244.447 103.633L244.265 104.158L244.498 104.194C244.629 104.216 245.139 104.289 245.642 104.347C247.775 104.616 250.426 105.119 252.436 105.629C253.477 105.898 253.601 105.913 253.747 105.818C254.096 105.585 255.669 104.019 256.427 103.167C256.864 102.665 257.504 101.886 257.847 101.427L258.48 100.597H259.522C260.097 100.597 260.57 100.626 260.57 100.655C260.57 100.75 259.609 102.133 259.048 102.854C254.023 109.328 246.603 113.464 238.396 114.375C237.041 114.52 233.124 114.498 231.842 114.338C225.179 113.479 219.564 110.857 214.692 106.328C213.018 104.769 210.92 102.25 210.003 100.684C209.959 100.618 210.185 100.597 211.037 100.597H212.122L212.362 100.939ZM228.834 105.731C228.856 105.709 230.203 105.629 232.17 105.519C233.131 105.468 238.949 105.541 240.144 105.621C241.556 105.716 241.709 105.738 241.709 105.854C241.709 106.073 240.355 108.658 239.809 109.481C238.986 110.726 237.777 111.942 236.939 112.372C236.197 112.751 235.716 112.86 235.053 112.809C234.376 112.751 233.961 112.605 233.277 112.161C232.228 111.476 231.208 110.282 230.174 108.505C229.694 107.675 228.776 105.789 228.834 105.731ZM226.162 105.964C226.045 105.978 225.346 106.073 224.611 106.175C222.863 106.415 221.494 106.648 219.958 106.976C218.982 107.187 218.72 107.267 218.778 107.34C218.909 107.5 220.824 108.731 221.785 109.262C224.276 110.653 226.985 111.68 229.694 112.248C230.255 112.372 230.75 112.467 230.793 112.467C230.837 112.467 230.699 112.263 230.48 112.008C229.301 110.661 228.186 108.825 227.283 106.75L226.934 105.949L226.657 105.942C226.504 105.934 226.286 105.942 226.162 105.964ZM241.819 109.627C242.292 108.847 243.195 107.056 243.464 106.371C243.572 106.094 243.613 105.987 243.688 105.953C243.735 105.931 243.796 105.938 243.894 105.949C244.032 105.971 244.673 106.051 245.314 106.131C247.171 106.371 249.509 106.794 251.46 107.245L251.846 107.333L251.205 107.777C249.035 109.27 246.035 110.755 243.654 111.513C242.328 111.935 239.852 112.532 239.772 112.452C239.758 112.43 239.925 112.212 240.151 111.95C240.69 111.331 241.309 110.471 241.819 109.627Z" stroke="#00BFBF" stroke-width="1.0566" mask="url(#path-5-outside-1_7003_65900)"/>
<path d="M110.486 14.0888L74.5392 29.9096C70.8264 31.5421 68.4385 35.1833 68.4385 39.2058V63.1075C68.4385 102.927 101.504 121.519 114.656 124.133C127.807 121.519 160.873 102.927 160.873 63.1075V39.2058C160.873 35.1883 158.485 31.5421 154.772 29.9096L118.826 14.0888C116.171 12.9191 113.141 12.9191 110.486 14.0888Z" fill="url(#paint1_linear_7003_65900)"/>
<g style="mix-blend-mode:multiply" opacity="0.25">
<path d="M114.655 13.2115V124.133C127.807 121.519 160.873 102.927 160.873 63.1075V39.2058C160.873 35.1884 158.485 31.5421 154.772 29.9096L118.826 14.0888C117.498 13.504 116.077 13.2115 114.655 13.2115Z" fill="#DDDDEE"/>
</g>
<path fill-rule="evenodd" clip-rule="evenodd" d="M114.973 31.949L116.395 34.9128C116.426 34.9765 116.486 35.0208 116.555 35.0312L119.743 35.5077C119.915 35.5334 119.985 35.7459 119.861 35.8699L117.549 38.1891C117.5 38.2379 117.478 38.3074 117.489 38.3755L118.034 41.645C118.063 41.8201 117.88 41.9524 117.724 41.8682L114.883 40.3314C114.82 40.2974 114.744 40.2974 114.681 40.3314L111.84 41.8682C111.684 41.9524 111.5 41.8201 111.529 41.645L112.074 38.3755C112.086 38.3074 112.064 38.2379 112.015 38.1891L109.702 35.8699C109.579 35.7459 109.648 35.5334 109.821 35.5077L113.008 35.0312C113.078 35.0208 113.138 34.9765 113.169 34.9128L114.59 31.949C114.668 31.788 114.896 31.788 114.973 31.949Z" fill="#FFC000"/>
<path fill-rule="evenodd" clip-rule="evenodd" d="M128.65 35.5657L130.072 38.5295C130.102 38.5932 130.162 38.6375 130.232 38.6479L133.419 39.1244C133.592 39.1501 133.662 39.3626 133.538 39.4866L131.225 41.8058C131.177 41.8546 131.155 41.9241 131.166 41.9922L131.711 45.2617C131.74 45.4368 131.556 45.5691 131.401 45.4849L128.559 43.9481C128.496 43.9141 128.421 43.9141 128.358 43.9481L125.516 45.4849C125.361 45.5691 125.177 45.4368 125.206 45.2617L125.751 41.9922C125.763 41.9241 125.74 41.8546 125.692 41.8058L123.379 39.4866C123.255 39.3626 123.325 39.1501 123.498 39.1244L126.685 38.6479C126.755 38.6375 126.815 38.5932 126.845 38.5295L128.267 35.5657C128.344 35.4047 128.573 35.4047 128.65 35.5657Z" fill="#FFC000"/>
<path fill-rule="evenodd" clip-rule="evenodd" d="M101.297 35.5662L102.718 38.53C102.749 38.5936 102.809 38.638 102.878 38.6484L106.066 39.1248C106.239 39.1506 106.308 39.3631 106.185 39.4871L103.872 41.8063C103.823 41.8551 103.801 41.9245 103.812 41.9927L104.358 45.2621C104.387 45.4373 104.203 45.5696 104.047 45.4854L101.206 43.9486C101.143 43.9146 101.067 43.9146 101.004 43.9486L98.163 45.4854C98.0073 45.5696 97.8235 45.4373 97.8526 45.2621L98.3977 41.9927C98.4091 41.9245 98.3869 41.8551 98.3382 41.8063L96.0255 39.4871C95.9019 39.3631 95.9716 39.1506 96.1444 39.1248L99.3317 38.6484C99.4014 38.638 99.4613 38.5936 99.4919 38.53L100.914 35.5662C100.991 35.4052 101.219 35.4052 101.297 35.5662Z" fill="#FFC000"/>
<path fill-rule="evenodd" clip-rule="evenodd" d="M91.3375 45.6094L92.7593 48.5732C92.7899 48.6369 92.8498 48.6812 92.9195 48.6916L96.1068 49.1681C96.2796 49.1938 96.3493 49.4063 96.2257 49.5303L93.913 51.8495C93.8643 51.8983 93.8422 51.9678 93.8535 52.0359L94.3986 55.3054C94.4277 55.4805 94.2439 55.6128 94.0882 55.5286L91.2469 53.9918C91.1839 53.9578 91.1083 53.9578 91.0453 53.9918L88.204 55.5286C88.0483 55.6128 87.8645 55.4805 87.8936 55.3054L88.4387 52.0359C88.4501 51.9678 88.4279 51.8983 88.3792 51.8495L86.0665 49.5303C85.9429 49.4063 86.0126 49.1938 86.1854 49.1681L89.3727 48.6916C89.4424 48.6812 89.5023 48.6369 89.5329 48.5732L90.9547 45.6094C91.032 45.4484 91.2602 45.4484 91.3375 45.6094Z" fill="#FFC000"/>
<path fill-rule="evenodd" clip-rule="evenodd" d="M138.628 45.6094L140.049 48.5732C140.08 48.6369 140.14 48.6812 140.21 48.6916L143.397 49.1681C143.57 49.1938 143.639 49.4063 143.516 49.5303L141.203 51.8495C141.154 51.8983 141.132 51.9678 141.144 52.0359L141.689 55.3054C141.718 55.4805 141.534 55.6128 141.378 55.5286L138.537 53.9918C138.474 53.9578 138.398 53.9578 138.335 53.9918L135.494 55.5286C135.338 55.6128 135.155 55.4805 135.184 55.3054L135.729 52.0359C135.74 51.9678 135.718 51.8983 135.669 51.8495L133.357 49.5303C133.233 49.4063 133.303 49.1938 133.475 49.1681L136.663 48.6916C136.732 48.6812 136.792 48.6369 136.823 48.5732L138.245 45.6094C138.322 45.4484 138.55 45.4484 138.628 45.6094Z" fill="#FFC000"/>
<path fill-rule="evenodd" clip-rule="evenodd" d="M87.6276 59.3428L89.0493 62.3066C89.08 62.3703 89.1399 62.4146 89.2095 62.425L92.3969 62.9015C92.5697 62.9272 92.6393 63.1397 92.5157 63.2637L90.203 65.5829C90.1544 65.6317 90.1322 65.7012 90.1435 65.7693L90.6886 69.0388C90.7178 69.2139 90.5339 69.3462 90.3783 69.262L87.5369 67.7252C87.4739 67.6912 87.3984 67.6912 87.3354 67.7252L84.494 69.262C84.3384 69.3462 84.1545 69.2139 84.1837 69.0388L84.7288 65.7693C84.7401 65.7012 84.7179 65.6317 84.6693 65.5829L82.3566 63.2637C82.233 63.1397 82.3026 62.9272 82.4754 62.9015L85.6628 62.425C85.7324 62.4146 85.7923 62.3703 85.823 62.3066L87.2447 59.3428C87.322 59.1818 87.5503 59.1818 87.6276 59.3428Z" fill="#FFC000"/>
<path fill-rule="evenodd" clip-rule="evenodd" d="M142.23 59.2569L143.652 62.2206C143.683 62.2843 143.742 62.3286 143.812 62.3391L146.999 62.8155C147.172 62.8413 147.242 63.0538 147.118 63.1778L144.806 65.497C144.757 65.5458 144.735 65.6152 144.746 65.6834L145.291 68.9528C145.32 69.1279 145.136 69.2602 144.981 69.1761L142.139 67.6392C142.076 67.6053 142.001 67.6053 141.938 67.6392L139.097 69.1761C138.941 69.2602 138.757 69.1279 138.786 68.9528L139.331 65.6834C139.343 65.6152 139.32 65.5458 139.272 65.497L136.959 63.1778C136.835 63.0538 136.905 62.8413 137.078 62.8155L140.265 62.3391C140.335 62.3286 140.395 62.2843 140.426 62.2206L141.847 59.2569C141.925 59.0958 142.153 59.0958 142.23 59.2569Z" fill="#FFC000"/>
<path fill-rule="evenodd" clip-rule="evenodd" d="M138.536 73.1225L139.958 76.0862C139.988 76.1499 140.048 76.1942 140.118 76.2047L143.305 76.6811C143.478 76.7069 143.548 76.9194 143.424 77.0434L141.111 79.3626C141.063 79.4114 141.04 79.4808 141.052 79.549L141.597 82.8184C141.626 82.9935 141.442 83.1258 141.286 83.0417L138.445 81.5049C138.382 81.4709 138.307 81.4709 138.244 81.5049L135.402 83.0417C135.247 83.1258 135.063 82.9935 135.092 82.8184L135.637 79.549C135.648 79.4808 135.626 79.4114 135.577 79.3626L133.265 77.0434C133.141 76.9194 133.211 76.7069 133.384 76.6811L136.571 76.2047C136.641 76.1942 136.701 76.1499 136.731 76.0862L138.153 73.1225C138.23 72.9614 138.458 72.9614 138.536 73.1225Z" fill="#FFC000"/>
<path fill-rule="evenodd" clip-rule="evenodd" d="M91.3063 73.0318L92.728 75.9955C92.7587 76.0592 92.8186 76.1035 92.8882 76.114L96.0756 76.5904C96.2484 76.6162 96.3181 76.8287 96.1944 76.9527L93.8817 79.2719C93.8331 79.3207 93.8109 79.3901 93.8222 79.4583L94.3673 82.7277C94.3965 82.9028 94.2126 83.0351 94.057 82.951L91.2156 81.4142C91.1527 81.3802 91.0771 81.3802 91.0141 81.4142L88.1727 82.951C88.0171 83.0351 87.8332 82.9028 87.8624 82.7277L88.4075 79.4583C88.4188 79.3901 88.3967 79.3207 88.348 79.2719L86.0353 76.9527C85.9117 76.8287 85.9813 76.6162 86.1542 76.5904L89.3415 76.114C89.4111 76.1035 89.471 76.0592 89.5017 75.9955L90.9234 73.0318C91.0007 72.8707 91.229 72.8707 91.3063 73.0318Z" fill="#FFC000"/>
<path fill-rule="evenodd" clip-rule="evenodd" d="M101.267 83.0449L102.689 86.0086C102.72 86.0723 102.779 86.1166 102.849 86.127L106.036 86.6035C106.209 86.6293 106.279 86.8418 106.155 86.9658L103.843 89.2849C103.794 89.3337 103.772 89.4032 103.783 89.4714L104.328 92.7408C104.357 92.9159 104.174 93.0482 104.018 92.964L101.177 91.4272C101.114 91.3932 101.038 91.3932 100.975 91.4272L98.1336 92.964C97.978 93.0482 97.7941 92.9159 97.8233 92.7408L98.3684 89.4714C98.3797 89.4032 98.3576 89.3337 98.3089 89.2849L95.9962 86.9658C95.8726 86.8418 95.9423 86.6293 96.1151 86.6035L99.3024 86.127C99.3721 86.1166 99.432 86.0723 99.4626 86.0086L100.884 83.0449C100.962 82.8838 101.19 82.8838 101.267 83.0449Z" fill="#FFC000"/>
<path fill-rule="evenodd" clip-rule="evenodd" d="M114.84 86.7719L116.262 89.7356C116.293 89.7993 116.353 89.8436 116.422 89.8541L119.61 90.3305C119.783 90.3563 119.852 90.5688 119.729 90.6928L117.416 93.012C117.367 93.0608 117.345 93.1302 117.356 93.1984L117.901 96.4678C117.931 96.6429 117.747 96.7752 117.591 96.6911L114.75 95.1543C114.687 95.1203 114.611 95.1203 114.548 95.1543L111.707 96.6911C111.551 96.7752 111.367 96.6429 111.397 96.4678L111.942 93.1984C111.953 93.1302 111.931 93.0608 111.882 93.012L109.569 90.6928C109.446 90.5688 109.516 90.3563 109.688 90.3305L112.876 89.8541C112.945 89.8436 113.005 89.7993 113.036 89.7356L114.458 86.7719C114.535 86.6109 114.763 86.6109 114.84 86.7719Z" fill="#FFC000"/>
<path fill-rule="evenodd" clip-rule="evenodd" d="M128.517 82.6177L129.939 85.5815C129.97 85.6452 130.029 85.6895 130.099 85.6999L133.286 86.1764C133.459 86.2021 133.529 86.4146 133.405 86.5386L131.093 88.8578C131.044 88.9066 131.022 88.9761 131.033 89.0442L131.578 92.3137C131.607 92.4888 131.424 92.6211 131.268 92.5369L128.427 91.0001C128.364 90.9661 128.288 90.9661 128.225 91.0001L125.384 92.5369C125.228 92.6211 125.044 92.4888 125.073 92.3137L125.618 89.0442C125.63 88.9761 125.608 88.9066 125.559 88.8578L123.246 86.5386C123.123 86.4146 123.192 86.2021 123.365 86.1764L126.552 85.6999C126.622 85.6895 126.682 85.6452 126.713 85.5815L128.134 82.6177C128.212 82.4567 128.44 82.4567 128.517 82.6177Z" fill="#FFC000"/>
<g clip-path="url(#clip0_7003_65900)">
<path fill-rule="evenodd" clip-rule="evenodd" d="M105.655 64.0954L105.603 64.1471C105.018 64.7319 105.018 65.68 105.603 66.2648L110.534 71.1959C111.119 71.7796 112.067 71.78 112.653 71.1968L123.956 59.9109C124.542 59.3274 124.542 58.3793 123.958 57.794C123.958 57.7938 123.957 57.7935 123.956 57.794L123.859 57.6965C123.273 57.1131 122.326 57.1126 121.74 57.6955L112.077 67.3412C111.784 67.6327 111.31 67.6325 111.018 67.3407L107.772 64.0954C107.188 63.5106 106.239 63.5106 105.655 64.0954Z" fill="#1A40FF"/>
</g>
<path d="M52.064 122.341L16.1173 138.162C12.4045 139.794 10.0166 143.435 10.0166 147.458V171.36C10.0166 211.179 43.0825 229.771 56.2338 232.385C69.3852 229.771 102.451 211.179 102.451 171.36V147.458C102.451 143.441 100.063 139.794 96.3504 138.162L60.4037 122.341C57.7487 121.171 54.7189 121.171 52.064 122.341Z" fill="url(#paint2_linear_7003_65900)"/>
<g style="mix-blend-mode:multiply" opacity="0.25">
<path d="M56.2334 121.464V232.385C69.3849 229.771 102.451 211.179 102.451 171.36V147.458C102.451 143.441 100.063 139.794 96.3497 138.162L60.4038 122.341C59.0762 121.756 57.6548 121.464 56.2334 121.464Z" fill="#DDDDEE"/>
</g>
<rect x="28.5039" y="145.951" width="55.4607" height="16.176" rx="2.23762" fill="#1F1E30"/>
<circle cx="36.591" cy="154.039" r="1.15543" fill="white"/>
<circle cx="41.214" cy="154.039" r="1.15543" fill="white"/>
<circle cx="45.8361" cy="154.039" r="1.15543" fill="white"/>
<rect x="53.9268" y="152.883" width="23.1086" height="2.31086" rx="1.11881" fill="white"/>
<rect x="28.5039" y="164.438" width="55.4607" height="16.176" rx="2.23762" fill="#E53939"/>
<circle cx="36.591" cy="172.526" r="1.15543" fill="white"/>
<circle cx="41.214" cy="172.526" r="1.15543" fill="white"/>
<circle cx="45.8361" cy="172.526" r="1.15543" fill="white"/>
<rect x="53.9268" y="171.371" width="23.1086" height="2.31086" rx="1.11881" fill="white"/>
<rect x="28.5039" y="182.924" width="55.4607" height="16.176" rx="2.23762" fill="#FFC000"/>
<circle cx="36.591" cy="191.013" r="1.15543" fill="white"/>
<circle cx="41.214" cy="191.013" r="1.15543" fill="white"/>
<circle cx="45.8361" cy="191.013" r="1.15543" fill="white"/>
<rect x="53.9268" y="189.857" width="23.1086" height="2.31086" rx="1.11881" fill="white"/>
<path d="M137.613 208.173L101.666 223.994C97.9533 225.626 95.5654 229.268 95.5654 233.29V257.192C95.5654 297.011 128.631 315.603 141.783 318.217C154.934 315.603 188 297.011 188 257.192V233.29C188 229.273 185.612 225.626 181.899 223.994L145.952 208.173C143.298 207.003 140.268 207.003 137.613 208.173Z" fill="url(#paint3_linear_7003_65900)"/>
<g style="mix-blend-mode:multiply" opacity="0.25">
<path d="M141.782 207.296V318.217C154.934 315.603 187.999 297.011 187.999 257.192V233.29C187.999 229.273 185.612 225.626 181.899 223.994L145.953 208.173C144.625 207.588 143.204 207.296 141.782 207.296Z" fill="#DDDDEE"/>
</g>
<path fill-rule="evenodd" clip-rule="evenodd" d="M142.235 228.817C143.448 228.817 144.505 229.644 144.798 230.821L145.267 232.71C145.499 233.642 146.218 234.375 147.144 234.624L148.108 234.883C149.038 235.133 150.03 234.857 150.698 234.163L152.024 232.783C152.867 231.905 154.202 231.717 155.255 232.329L156.053 232.792C157.097 233.399 157.596 234.637 157.266 235.798L156.727 237.694C156.466 238.613 156.721 239.601 157.394 240.278L158.108 240.996C158.787 241.68 159.785 241.939 160.711 241.672L162.543 241.145C163.712 240.808 164.959 241.314 165.565 242.368L166.035 243.188C166.635 244.234 166.45 245.554 165.586 246.395L164.185 247.757C163.501 248.423 163.23 249.406 163.475 250.328L163.741 251.33C163.987 252.257 164.718 252.978 165.649 253.213L167.513 253.682C168.687 253.977 169.51 255.032 169.51 256.243V257.198C169.51 258.409 168.687 259.464 167.513 259.76L165.649 260.228C164.718 260.463 163.987 261.184 163.741 262.112L163.475 263.113C163.23 264.035 163.501 265.018 164.185 265.684L165.586 267.046C166.45 267.887 166.635 269.207 166.035 270.253L165.565 271.073C164.959 272.128 163.712 272.633 162.543 272.296L160.711 271.769C159.904 271.537 159.042 271.704 158.385 272.203C157.355 271.032 156.175 269.935 154.843 268.964C157.917 265.734 159.804 261.361 159.804 256.547C159.804 246.592 151.734 238.523 141.779 238.523C131.824 238.523 123.754 246.592 123.754 256.547C123.754 261.361 125.641 265.734 128.716 268.967C127.383 269.935 126.204 271.032 125.172 272.203C124.516 271.704 123.654 271.537 122.847 271.769L121.015 272.296C119.846 272.633 118.599 272.128 117.994 271.073L117.524 270.253C116.923 269.207 117.108 267.887 117.973 267.046L119.373 265.684C120.057 265.018 120.329 264.035 120.084 263.113L119.818 262.112C119.571 261.184 118.841 260.463 117.91 260.228L116.046 259.76C114.872 259.464 114.049 258.409 114.049 257.198V256.243C114.049 255.032 114.872 253.977 116.046 253.682L117.91 253.213C118.841 252.978 119.571 252.257 119.818 251.33L120.084 250.328C120.329 249.406 120.057 248.423 119.373 247.757L117.973 246.395C117.108 245.554 116.923 244.234 117.524 243.188L117.994 242.368C118.599 241.314 119.846 240.808 121.015 241.145L122.847 241.672C123.773 241.939 124.771 241.68 125.451 240.996L126.164 240.278C126.837 239.601 127.092 238.613 126.831 237.694L126.292 235.798C125.962 234.637 126.462 233.399 127.506 232.792L128.304 232.329C129.356 231.717 130.691 231.905 131.534 232.783L132.86 234.163C133.528 234.857 134.521 235.133 135.451 234.883L136.414 234.624C137.341 234.375 138.059 233.642 138.291 232.71L138.76 230.821C139.053 229.644 140.11 228.817 141.323 228.817H142.235Z" fill="#7F21DD"/>
<path fill-rule="evenodd" clip-rule="evenodd" d="M141.779 265.56C146.756 265.56 150.791 261.525 150.791 256.547C150.791 251.57 146.756 247.535 141.779 247.535C136.801 247.535 132.766 251.57 132.766 256.547C132.766 261.525 136.801 265.56 141.779 265.56ZM156.434 287.051C161.318 287.051 157.455 270.413 141.779 270.413C126.103 270.413 122.239 287.051 127.124 287.051C132.009 287.051 151.549 287.051 156.434 287.051Z" fill="#7F21DD"/>
<path d="M248.173 156.293L212.227 172.114C208.514 173.746 206.126 177.387 206.126 181.41V205.312C206.126 245.131 239.192 263.723 252.343 266.337C265.495 263.723 298.56 245.131 298.56 205.312V181.41C298.56 177.393 296.173 173.746 292.46 172.114L256.513 156.293C253.858 155.123 250.828 155.123 248.173 156.293Z" fill="url(#paint4_linear_7003_65900)"/>
<g style="mix-blend-mode:multiply" opacity="0.25">
<path d="M252.343 155.416V266.337C265.494 263.723 298.56 245.131 298.56 205.312V181.41C298.56 177.393 296.172 173.746 292.459 172.114L256.513 156.293C255.186 155.708 253.764 155.416 252.343 155.416Z" fill="#DDDDEE"/>
</g>
<mask id="mask0_7003_65900" style="mask-type:alpha" maskUnits="userSpaceOnUse" x="233" y="174" width="41" height="27">
<path d="M253.194 174.502C264.256 174.502 273.223 182.366 273.223 192.067V200.191H267.5L267.5 192.757C267.5 185.897 261.223 180.323 253.431 180.212L253.194 180.211C245.293 180.211 238.888 185.828 238.888 192.757L238.888 200.191H233.166V192.067C233.166 182.366 242.133 174.502 253.194 174.502Z" fill="white"/>
</mask>
<g mask="url(#mask0_7003_65900)">
<path d="M253.206 174.501C264.268 174.501 273.235 182.366 273.235 192.067V200.19H267.512L267.512 192.757C267.512 185.897 261.235 180.323 253.443 180.212L253.206 180.21C245.305 180.21 238.9 185.827 238.9 192.757L238.9 200.19H233.178V192.067C233.178 182.366 242.145 174.501 253.206 174.501Z" fill="#B6BDC0"/>
<path d="M235.293 187.79C236.314 185.291 237.426 183.457 238.627 182.287" stroke="#E1E4E6" stroke-width="3.77863" stroke-linecap="round" stroke-linejoin="round"/>
<path d="M234.609 190.89C235.039 190.89 235.388 190.542 235.388 190.114C235.388 189.686 235.039 189.339 234.609 189.339C234.179 189.339 233.83 189.686 233.83 190.114C233.83 190.542 234.179 190.89 234.609 190.89Z" fill="#E1E4E6"/>
<path d="M272.781 196.522C273.48 187.02 270.631 183.942 268.48 180.77" stroke="#8A9499" stroke-width="5.66794" stroke-linecap="round" stroke-linejoin="round"/>
<path d="M240.289 196.427H231.832V200.192H240.289V196.427Z" fill="#8A9499"/>
<path d="M274.554 196.427H266.097V200.192H274.554V196.427Z" fill="#8A9499"/>
</g>
<path d="M273.689 198.418H232.712C229.279 198.418 226.496 201.201 226.496 204.634V232.065C226.496 235.498 229.279 238.281 232.712 238.281H273.689C277.122 238.281 279.905 235.498 279.905 232.065V204.634C279.905 201.201 277.122 198.418 273.689 198.418Z" fill="#2858D6"/>
<mask id="mask1_7003_65900" style="mask-type:alpha" maskUnits="userSpaceOnUse" x="226" y="198" width="53" height="40">
<path d="M272.356 198.419H232.714C229.281 198.419 226.498 201.202 226.498 204.635V231.401C226.498 234.834 229.281 237.617 232.714 237.617H272.356C275.789 237.617 278.572 234.834 278.572 231.401V204.635C278.572 201.202 275.789 198.419 272.356 198.419Z" fill="white"/>
</mask>
<g mask="url(#mask1_7003_65900)">
<path d="M272.354 198.418H232.712C229.279 198.418 226.496 201.201 226.496 204.634V231.401C226.496 234.834 229.279 237.616 232.712 237.616H272.354C275.787 237.616 278.57 234.834 278.57 231.401V204.634C278.57 201.201 275.787 198.418 272.354 198.418Z" fill="#4070FF"/>
<path opacity="0.5" d="M279.921 198.418H253.217V238.281H279.921V198.418Z" fill="#2858D6"/>
</g>
<path fill-rule="evenodd" clip-rule="evenodd" d="M253.09 209.493C256.347 209.493 258.987 212.104 258.987 215.324C258.987 217.483 257.801 219.368 256.038 220.376L256.038 224.049C256.038 225.672 254.722 226.988 253.099 226.988H253.08C251.457 226.988 250.141 225.672 250.141 224.049L250.141 220.376C248.378 219.368 247.192 217.483 247.192 215.324C247.192 212.104 249.833 209.493 253.09 209.493Z" fill="#083283"/>
<defs>
<linearGradient id="paint0_linear_7003_65900" x1="189.968" y1="88.8701" x2="282.402" y2="88.8701" gradientUnits="userSpaceOnUse">
<stop stop-color="white"/>
<stop offset="1" stop-color="#F4F4FB"/>
</linearGradient>
<linearGradient id="paint1_linear_7003_65900" x1="68.4385" y1="68.6722" x2="160.873" y2="68.6722" gradientUnits="userSpaceOnUse">
<stop stop-color="white"/>
<stop offset="1" stop-color="#F4F4FB"/>
</linearGradient>
<linearGradient id="paint2_linear_7003_65900" x1="10.0166" y1="176.924" x2="102.451" y2="176.924" gradientUnits="userSpaceOnUse">
<stop stop-color="white"/>
<stop offset="1" stop-color="#F4F4FB"/>
</linearGradient>
<linearGradient id="paint3_linear_7003_65900" x1="95.5654" y1="262.757" x2="188" y2="262.757" gradientUnits="userSpaceOnUse">
<stop stop-color="white"/>
<stop offset="1" stop-color="#F4F4FB"/>
</linearGradient>
<linearGradient id="paint4_linear_7003_65900" x1="206.126" y1="210.876" x2="298.56" y2="210.876" gradientUnits="userSpaceOnUse">
<stop stop-color="white"/>
<stop offset="1" stop-color="#F4F4FB"/>
</linearGradient>
<clipPath id="clip0_7003_65900">
<rect width="23.959" height="23.959" fill="white" transform="translate(102.747 52.2931)"/>
</clipPath>
</defs>
</svg>
